# AST/ASF file generated using VICON BodyLanguage
# -----------------------------------------------
:version 1.10
:name VICON
:units
  mass 1.0
  length 0.45
  angle deg
:documentation
   .ast/.asf automatically generated from VICON data using
   VICON BodyBuilder and BodyLanguage model FoxedUp or BRILLIANT.MOD
:root
   order TX TY TZ RX RY RZ
   axis XYZ
   position 0 0 0  
   orientation 0 0 0 
:bonedata
  begin
     id 1 
     name lhipjoint
     direction 0.714689 -0.624256 0.315473 
     length 2.45343 
     axis 0 0 0  XYZ
  end
  begin
     id 2 
     name lfemur
     direction 0.34202 -0.939693 0  
     length 6.59069  
     axis 0 0 20  XYZ
    dof rx ry rz
    limits (-160.0 20.0)
           (-70.0 70.0)
           (-60.0 70.0)
  end
  begin
     id 3 
     name ltibia
     direction 0.34202 -0.939693 0   
     length 6.73476   
     axis 0 0 20   XYZ
    dof rx
    limits (-10.0 170.0)
  end
  begin
     id 4 
     name lfoot
     direction 0.0718085 -0.197292 0.977711   
     length 1.52607   
     axis -90 7.62852e-016 20   XYZ
    dof rx rz
    limits (-45.0 90.0)
           (-70.0 20.0)
  end
  begin
     id 5 
     name ltoes
     direction 1.53553e-011 -4.22024e-011 1   
     length 0.777832   
     axis -90 7.62852e-016 20   XYZ
    dof rx
    limits (-90.0 20.0)
  end
  begin
     id 6 
     name rhipjoint
     direction -0.727419 -0.612432 0.309497   
     length 2.50079  
     axis 0 0 0  XYZ 
  end
  begin
     id 7 
     name rfemur
     direction -0.34202 -0.939693 0   
     length 6.51665   
     axis 0 0 -20   XYZ
    dof rx ry rz
    limits (-160.0 20.0)
           (-70.0 70.0)
           (-70.0 60.0)
  end
  begin
     id 8 
     name rtibia
     direction -0.34202 -0.939693 0   
     length 6.48919   
     axis 0 0 -20   XYZ
    dof rx
    limits (-10.0 170.0)
 end
 begin
     id 9 
     name rfoot
     direction -0.112205 -0.308282 0.944655   
     length 1.68717  
     axis -90 -7.62852e-016 -20   XYZ
    dof rx rz
    limits (-45.0 90.0)
           (-20.0 70.0)
  end
  begin
     id 10 
     name rtoes
     direction -1.53583e-011 -4.21993e-011 1   
     length 0.846859   
     axis -90 -7.62852e-016 -20   XYZ
    dof rx
    limits (-90.0 20.0)
  end
  begin
     id 11 
     name lowerback
     direction -0.00119603 0.996364 -0.0851956   
     length 1.67242   
     axis 0 0 0   XYZ
    dof rx ry rz
    limits (-20.0 45.0)
           (-30.0 30.0)
           (-30.0 30.0)
  end
  begin
     id 12 
     name upperback
     direction -0.00531001 0.998318 0.0577248   
     length 1.64819   
     axis 0 0 0   XYZ
    dof rx ry rz
    limits (-20.0 45.0)
           (-30.0 30.0)
           (-30.0 30.0)
  end
  begin
     id 13 
     name thorax
     direction -0.00653676 0.995132 0.0983291   
     length 1.67429   
     axis 0 0 0   XYZ
    dof rx ry rz
    limits (-20.0 45.0)
           (-30.0 30.0)
           (-30.0 30.0)
  end
  begin
     id 14 
     name lowerneck
     direction 0.0141424 0.999886 0.00525412   
     length 1.59623   
     axis 0 0 0   XYZ
    dof rx ry rz
    limits (-20.0 45.0)
           (-30.0 30.0)
           (-30.0 30.0)
  end
  begin
     id 15 
     name upperneck
     direction -0.0640064 0.987178 -0.146232   
     length 1.59576   
     axis 0 0 0   XYZ
    dof rx ry rz
    limits (-20.0 45.0)
           (-30.0 30.0)
           (-30.0 30.0)
  end
  begin
     id 16
     name head
     direction -0.0222942 0.998496 -0.0500859  
     length 1.60959  
     axis 0 0 0   XYZ
    dof rx ry rz
    limits (-20.0 45.0)
           (-30.0 30.0)
           (-30.0 30.0)
  end
  begin
     id 17 
     name lclavicle
     direction 0.908549 0.392612 0.142806  
     length 2.80649  
     axis 0 0 0   XYZ
    dof ry rz
    limits (-20.0 10.0)
           (0.0 20.0)
  end
  begin
     id 18 
     name lhumerus
     direction 1 -4.48968e-011 1.08832e-028   
     length 4.2884   
     axis -180 -30 -90   XYZ
    dof rx ry rz
    limits (-60.0 90.0)
           (-90.0 90.0)
           (-90.0 90.0)
  end
  begin
     id 19
     name lradius
     direction 1 -4.48952e-011 -3.02642e-028   
     length 3.06552   
     axis -180 -30 -90   XYZ
    dof rx
    limits (-10.0 170.0)
  end
  begin
     id 20
     name lwrist
     direction 1 -4.49014e-011 1.58672e-027   
     length 1.53276   
     axis -1.65735e-015 90 90   XYZ
    dof ry
    limits (-180.0 0.0)
 end
  begin
     id 21 
     name lhand
     direction 1 -4.48928e-011 3.17344e-027   
     length 0.753045   
     axis -2.02492e-015 90 90   XYZ
    dof rx rz
    limits (-90.0 90.0)
           (-45.0 45.0)
  end
  begin
     id 22 
     name lfingers
     direction 1 -4.48958e-011 6.34687e-027   
     length 0.607124   
     axis -4.04985e-015 90 90   XYZ
    dof rx
    limits (0.0 90.0)
  end
  begin
     id 23
     name lthumb
     direction 0.707107 -6.34905e-011 0.707107   
     length 0.871712   
     axis -90 45 2.85299e-015   XYZ
    dof rx rz
    limits (-45.0 45.0)
           (-45.0 45.0)
  end
  begin
     id 24 
     name rclavicle
     direction -0.885098 0.45949 0.0739604   
     length 2.9478  
     axis 0 0 0   XYZ 
    dof ry rz
    limits (-10.0 20.0)
           (-20.0 0.0)
  end
  begin
     id 25 
     name rhumerus
     direction -1 -4.4898e-011 -2.61739e-027  
     length 4.52172   
     axis -180 30 90   XYZ
    dof rx ry rz
    limits (-90.0 60.0)
           (-90.0 90.0)
           (-90.0 90.0)
  end
  begin
     id 26 
     name rradius
     direction -1 -4.48945e-011 9.02552e-028   
     length 2.8914   
     axis -180 30 90   XYZ
    dof rx
    limits (-10.0 170.0)
  end
  begin
     id 27 
     name rwrist
     direction -1 -4.49018e-011 1.58672e-027   
     length 1.4457   
     axis -1.65735e-015 -90 -90   XYZ
    dof ry
    limits (-180.0 0.0)
  end
  begin
     id 28
     name rhand
     direction -1 -4.48825e-011 3.17344e-027   
     length 0.680541   
     axis -2.02492e-015 -90 -90   XYZ
    dof rx rz
    limits (-90.0 90.0)
           (-45.0 45.0)
  end
  begin
     id 29
     name rfingers
     direction -1 -4.49067e-011 6.34687e-027   
     length 0.54867   
     axis -4.04985e-015 -90 -90   XYZ
    dof rx
    limits (0.0 90.0)
  end
  begin
     id 30
     name rthumb
     direction -0.707107 -6.34833e-011 0.707107   
     length 0.787783   
     axis -90 -45 -2.85299e-015   XYZ
    dof rx rz
    limits (-45.0 45.0)
           (-45.0 45.0)
  end
:hierarchy
  begin
    root lhipjoint rhipjoint lowerback
    lhipjoint lfemur
    lfemur ltibia
    ltibia lfoot
    lfoot ltoes
    rhipjoint rfemur
    rfemur rtibia
    rtibia rfoot
    rfoot rtoes
    lowerback upperback
    upperback thorax
    thorax lowerneck lclavicle rclavicle
    lowerneck upperneck
    upperneck head
    lclavicle lhumerus
    lhumerus lradius
    lradius lwrist
    lwrist lhand lthumb
    lhand lfingers
    rclavicle rhumerus
    rhumerus rradius
    rradius rwrist
    rwrist rhand rthumb
    rhand rfingers
  end

#!OML:ASF E:\emotionWalksFemale\Project 1\Capture day 1\Session 1\Female1.ASF
:FULLY-SPECIFIED
:DEGREES
126
root 8.79168 13.7347 24.463 -148.432 -1.53071 -178.892
lowerback 26.815 0.838479 0.638886
upperback 0.930419 0.87692 -0.208092
thorax -13.974 0.181328 -0.901978
lowerneck -11.6287 -2.56185 -5.61372
upperneck -15.4443 -4.2625 7.58144
head -2.77827 -2.91922 3.50967
rclavicle 6.95746e-015 9.31803e-015
rhumerus -11.6264 46.4254 -62.468
rradius 68.3909
rwrist 8.42107
rhand -19.6751 -47.5109
rfingers 7.12502
rthumb 6.65346 -77.3863
lclavicle 6.95746e-015 9.31803e-015
lhumerus -16.9767 -30.2427 65.4092
lradius 72.3965
lwrist 14.0662
lhand -16.4543 -43.6362
lfingers 7.12502
lthumb 9.76183 -13.8824
rfemur -71.5103 1.1393 25.6183
rtibia 66.3495
rfoot -26.6071 -16.8427
rtoes -8.18686
lfemur -74.6148 -2.90021 -18.7075
ltibia 66.4009
lfoot -28.1532 4.768
ltoes -41.856
127
root 8.79006 13.7062 24.4712 -148.142 -1.44104 -178.924
lowerback 27.0929 0.87903 0.569949
upperback 1.04546 0.890404 -0.196649
thorax -13.991 0.184034 -0.854764
lowerneck -11.7361 -2.54248 -5.68957
upperneck -15.6568 -4.26201 7.58709
head -2.83486 -2.93657 3.53248
rclavicle -3.45388e-015 -2.70844e-015
rhumerus -10.5708 46.1989 -61.4462
rradius 68.7297
rwrist 8.69119
rhand -18.9147 -47.7942
rfingers 7.12502
rthumb 7.38752 -77.6452
lclavicle -3.45388e-015 -2.70844e-015
lhumerus -16.5652 -29.7557 65.1639
lradius 73.1198
lwrist 14.3771
lhand -16.5936 -44.0538
lfingers 7.12502
lthumb 9.62748 -14.2938
rfemur -72.1059 1.21534 25.5356
rtibia 66.7316
rfoot -26.6442 -16.8171
rtoes -7.86728
lfemur -75.1972 -2.82635 -18.8201
ltibia 66.7752
lfoot -28.1543 4.83763
ltoes -42.1758
128
root 8.78569 13.6792 24.4788 -147.846 -1.36365 -178.858
lowerback 27.4744 0.882496 0.637898
upperback 1.07002 0.903442 -0.209671
thorax -14.1687 0.177926 -0.917702
lowerneck -11.6283 -2.51537 -5.71412
upperneck -15.8269 -4.23614 7.60354
head -2.91494 -2.93392 3.55406
rclavicle 1.85118e-014 -8.82107e-015
rhumerus -9.50598 46.2796 -60.4568
rradius 69.0293
rwrist 8.44701
rhand -18.0646 -48.0013
rfingers 7.12502
rthumb 8.20801 -77.8219
lclavicle 1.85118e-014 -8.82107e-015
lhumerus -16.327 -29.5426 64.8513
lradius 73.9074
lwrist 14.8765
lhand -16.8852 -44.3781
lfingers 7.12502
lthumb 9.34614 -14.6053
rfemur -72.6693 1.31481 25.5579
rtibia 67.0821
rfoot -26.7614 -16.8202
rtoes -7.44301
lfemur -75.8178 -2.69558 -18.8531
ltibia 67.1851
lfoot -28.1998 4.96592
ltoes -42.6213
129
root 8.78153 13.6537 24.4865 -147.604 -1.30322 -178.823
lowerback 27.9833 0.83842 0.591869
upperback 1.09731 0.810494 -0.253341
thorax -14.4159 0.128565 -0.910144
lowerneck -11.8334 -2.42403 -5.44309
upperneck -15.7667 -4.1539 7.50263
head -2.87005 -2.9094 3.46201
rclavicle -8.91425e-015 2.48481e-017
rhumerus -8.47313 46.4602 -59.6522
rradius 69.326
rwrist 8.16059
rhand -18.0255 -48.1476
rfingers 7.12502
rthumb 8.24577 -77.9667
lclavicle -8.91425e-015 2.48481e-017
lhumerus -18.0204 -27.9942 66.5649
lradius 75.0707
lwrist 13.0216
lhand -17.3844 -45.1042
lfingers 7.12502
lthumb 8.86437 -15.3104
rfemur -73.1752 1.45262 25.4975
rtibia 67.4444
rfoot -26.8853 -16.8832
rtoes -7.52048
lfemur -76.3511 -2.59848 -18.8875
ltibia 67.6009
lfoot -28.3668 5.01009
ltoes -42.9156
130
root 8.78263 13.6114 24.5038 -147.166 -1.39907 -178.599
lowerback 28.6459 0.729837 0.61994
upperback 0.563814 0.686553 -0.265425
thorax -14.5889 0.0754427 -0.847116
lowerneck -11.9715 -2.24128 -4.89254
upperneck -15.7024 -3.98162 7.33113
head -2.84535 -2.85264 3.2977
rclavicle -3.27995e-015 7.95139e-016
rhumerus -7.78039 46.4383 -59.2994
rradius 69.6495
rwrist 8.65784
rhand -17.6914 -48.1366
rfingers 7.12502
rthumb 8.56818 -77.9427
lclavicle -3.27995e-015 7.95139e-016
lhumerus -18.7181 -26.1939 68.5205
lradius 74.8962
lwrist 10.7031
lhand -18.2899 -45.9796
lfingers 7.12502
lthumb 7.99058 -16.1507
rfemur -73.9878 1.71157 25.6762
rtibia 67.8199
rfoot -26.802 -17.0605
rtoes -7.75096
lfemur -77.2784 -2.45826 -18.6144
ltibia 68.0477
lfoot -28.3706 4.82978
ltoes -42.6153
131
root 8.77731 13.5841 24.5079 -146.851 -1.31995 -178.652
lowerback 28.426 0.88743 0.620102
upperback 1.34545 0.852561 -0.176984
thorax -14.3594 0.132311 -0.853588
lowerneck -11.9861 -2.32887 -5.19873
upperneck -16.2199 -4.12845 7.36929
head -3.01353 -2.95263 3.38646
rclavicle -1.62134e-015 -4.95098e-015
rhumerus -6.37106 45.7469 -57.8051
rradius 69.8947
rwrist 8.8559
rhand -17.2915 -48.0543
rfingers 7.12502
rthumb 8.95411 -77.8443
lclavicle -1.62134e-015 -4.95098e-015
lhumerus -18.8887 -26.5989 67.2863
lradius 77.2886
lwrist 12.0885
lhand -19.1854 -46.2251
lfingers 7.12502
lthumb 7.1262 -16.3651
rfemur -74.6153 1.60237 25.6999
rtibia 68.2241
rfoot -26.8563 -17.0008
rtoes -8.06961
lfemur -77.8335 -2.4427 -18.6992
ltibia 68.3993
lfoot -28.463 4.65347
ltoes -41.8984
